<svg width="20" height="18" viewBox="0 0 20 18" fill="none" xmlns="http://www.w3.org/2000/svg">
<path d="M0.127514 8.23166L7.95347 0.131823C8.03505 0.0473862 8.1457 -4.95911e-05 8.26107 -4.95911e-05C8.37644 -4.95911e-05 8.48709 0.0473862 8.56867 0.131823C8.65026 0.216259 8.69609 0.33078 8.69609 0.450191C8.69609 0.569603 8.65026 0.684124 8.56867 0.76856L1.4851 8.10003L19.5652 8.10003C19.6805 8.10003 19.7911 8.14744 19.8727 8.23183C19.9542 8.31622 20 8.43068 20 8.55002C20 8.66937 19.9542 8.78383 19.8727 8.86822C19.7911 8.95261 19.6805 9.00001 19.5652 9.00001L1.4851 9.00001L8.56867 16.3315C8.65026 16.4159 8.69609 16.5304 8.69609 16.6499C8.69609 16.7693 8.65026 16.8838 8.56867 16.9682C8.48709 17.0527 8.37644 17.1001 8.26107 17.1001C8.1457 17.1001 8.03505 17.0527 7.95347 16.9682L0.127514 8.86839C0.0870895 8.8266 0.0550213 8.77697 0.0331421 8.72234C0.0112629 8.66772 0 8.60916 0 8.55002C0 8.49089 0.0112629 8.43233 0.0331421 8.3777C0.0550213 8.32308 0.0870895 8.27345 0.127514 8.23166Z" fill="black"/>
</svg>
