<svg width="18" height="15" viewBox="0 0 18 15" fill="none" xmlns="http://www.w3.org/2000/svg">
<path id="Vector" d="M17.5 4.84375C17.5 10.3125 9.39141 14.7391 9.04609 14.9219C8.95508 14.9708 8.85335 14.9965 8.75 14.9965C8.64665 14.9965 8.54492 14.9708 8.45391 14.9219C8.10859 14.7391 0 10.3125 0 4.84375C0.00144745 3.55955 0.512235 2.32837 1.4203 1.4203C2.32837 0.512235 3.55955 0.00144745 4.84375 0C6.45703 0 7.86953 0.69375 8.75 1.86641C9.63047 0.69375 11.043 0 12.6562 0C13.9404 0.00144745 15.1716 0.512235 16.0797 1.4203C16.9878 2.32837 17.4986 3.55955 17.5 4.84375Z" fill="#B20000"/>
</svg>
