<svg width="71" height="60" viewBox="0 0 71 60" fill="none" xmlns="http://www.w3.org/2000/svg">
<path id="Vector" d="M51.4091 0C44.7273 0 38.9173 3.01318 35.5 8.06273C32.0827 3.01318 26.2727 0 19.5909 0C14.5295 0.00589467 9.67707 2.01915 6.09811 5.59811C2.51915 9.17707 0.505895 14.0295 0.5 19.0909C0.5 28.3818 6.29091 38.0514 17.7136 47.8259C22.9479 52.286 28.6019 56.2287 34.5964 59.5986C34.8742 59.7479 35.1846 59.826 35.5 59.826C35.8154 59.826 36.1258 59.7479 36.4036 59.5986C42.3981 56.2287 48.0521 52.286 53.2864 47.8259C64.7091 38.0514 70.5 28.3818 70.5 19.0909C70.4941 14.0295 68.4809 9.17707 64.9019 5.59811C61.3229 2.01915 56.4705 0.00589467 51.4091 0ZM35.5 55.7168C30.2786 52.7036 4.31818 36.82 4.31818 19.0909C4.32239 15.0416 5.93283 11.1594 8.79611 8.29611C11.6594 5.43283 15.5416 3.82239 19.5909 3.81818C26.0436 3.81818 31.4623 7.26409 33.7341 12.8132C33.8779 13.1633 34.1226 13.4628 34.437 13.6736C34.7515 13.8843 35.1215 13.9969 35.5 13.9969C35.8785 13.9969 36.2485 13.8843 36.563 13.6736C36.8774 13.4628 37.1221 13.1633 37.2659 12.8132C39.5377 7.26409 44.9564 3.81818 51.4091 3.81818C55.4584 3.82239 59.3406 5.43283 62.2039 8.29611C65.0672 11.1594 66.6776 15.0416 66.6818 19.0909C66.6818 36.82 40.7214 52.7036 35.5 55.7168Z" fill="#B20000"/>
</svg>
