<svg width="20" height="18" viewBox="0 0 20 18" fill="none" xmlns="http://www.w3.org/2000/svg">
<path id="Vector" d="M19.8725 8.86844L12.0465 16.9683C11.965 17.0527 11.8543 17.1001 11.7389 17.1001C11.6236 17.1001 11.5129 17.0527 11.4313 16.9683C11.3497 16.8838 11.3039 16.7693 11.3039 16.6499C11.3039 16.5305 11.3497 16.416 11.4313 16.3315L18.5149 9.00006H0.434775C0.319466 9.00006 0.208879 8.95265 0.127343 8.86827C0.0458066 8.78388 0 8.66942 0 8.55007C0 8.43073 0.0458066 8.31627 0.127343 8.23188C0.208879 8.14749 0.319466 8.10008 0.434775 8.10008H18.5149L11.4313 0.76861C11.3497 0.684173 11.3039 0.569652 11.3039 0.450241C11.3039 0.33083 11.3497 0.216309 11.4313 0.131873C11.5129 0.0474361 11.6236 2.35388e-09 11.7389 0C11.8543 -2.35388e-09 11.965 0.0474357 12.0465 0.131872L19.8725 8.2317C19.9129 8.2735 19.945 8.32312 19.9669 8.37775C19.9887 8.43238 20 8.49094 20 8.55007C20 8.60921 19.9887 8.66777 19.9669 8.72239C19.945 8.77702 19.9129 8.82665 19.8725 8.86844Z" fill="black"/>
</svg>
