<svg width="25" height="24" viewBox="0 0 25 24" fill="none" xmlns="http://www.w3.org/2000/svg">
<g id="mingcute:check-fill" clip-path="url(#clip0_2034_1484)">
<g id="Group">
<path id="Vector" fill-rule="evenodd" clip-rule="evenodd" d="M22.046 5.11101C22.3272 5.3923 22.4852 5.77376 22.4852 6.17151C22.4852 6.56925 22.3272 6.95071 22.046 7.23201L10.803 18.475C10.6544 18.6236 10.478 18.7415 10.2839 18.8219C10.0898 18.9024 9.88167 18.9438 9.67153 18.9438C9.46138 18.9438 9.25329 18.9024 9.05915 18.8219C8.865 18.7415 8.6886 18.6236 8.54003 18.475L2.95403 12.89C2.81076 12.7516 2.69649 12.5861 2.61787 12.4031C2.53926 12.2201 2.49788 12.0233 2.49615 11.8241C2.49442 11.6249 2.53237 11.4274 2.60779 11.2431C2.68322 11.0587 2.79459 10.8913 2.93543 10.7504C3.07627 10.6096 3.24375 10.4982 3.42809 10.4228C3.61244 10.3474 3.80996 10.3094 4.00913 10.3111C4.2083 10.3129 4.40513 10.3542 4.58813 10.4329C4.77114 10.5115 4.93666 10.6257 5.07503 10.769L9.67103 15.365L19.924 5.11101C20.0633 4.97162 20.2287 4.86104 20.4108 4.7856C20.5928 4.71016 20.788 4.67133 20.985 4.67133C21.1821 4.67133 21.3772 4.71016 21.5593 4.7856C21.7413 4.86104 21.9067 4.97162 22.046 5.11101Z" fill="#B20000"/>
</g>
</g>
<defs>
<clipPath id="clip0_2034_1484">
<rect width="24" height="24" fill="white" transform="translate(0.5)"/>
</clipPath>
</defs>
</svg>
